<svg width="45" height="45" viewBox="0 0 45 45" fill="none" xmlns="http://www.w3.org/2000/svg">
<g opacity="0.2" clip-path="url(#clip0_1_143)">
<path d="M15.75 12H12.75C11.5074 12 10.5 13.0074 10.5 14.25V16.5H3.75002C2.64902 16.4973 1.70865 17.2937 1.5301 18.3801C1.35154 19.4665 1.98755 20.522 3.03152 20.8718C3.36503 27.6563 8.95731 32.9891 15.75 33H18V35.25C18.004 36.2001 18.6043 37.0453 19.5 37.362V42C19.5 43.6569 20.8432 45 22.5 45C24.1569 45 25.5 43.6569 25.5 42V37.362C26.3958 37.0453 26.9961 36.2001 27 35.25V33H29.25C36.0427 32.9891 41.635 27.6563 41.9685 20.8718C43.0125 20.522 43.6485 19.4665 43.4699 18.3801C43.2914 17.2937 42.351 16.4973 41.25 16.5H34.5V14.25C34.5 13.0074 33.4927 12 32.25 12H29.25C28.0074 12 27 13.0074 27 14.25V16.5H24.75V6.00003C24.7483 4.27204 24.0024 2.6285 22.703 1.48938C21.4036 0.350255 19.6766 -0.174104 17.9633 0.050284C14.9338 0.498558 12.7046 3.12093 12.75 6.18303V6.75003C12.75 7.57846 13.4216 8.25003 14.25 8.25003H15.75C16.5784 8.25003 17.25 7.57846 17.25 6.75003V6.00003C17.2496 5.54842 17.4527 5.12066 17.8029 4.8355C18.1531 4.55033 18.6131 4.43813 19.0553 4.53003C19.7697 4.70504 20.2666 5.35312 20.25 6.08853V16.5H18V14.25C18 13.0074 16.9927 12 15.75 12ZM12 14.25C12 13.8358 12.3358 13.5 12.75 13.5H15.75C16.1642 13.5 16.5 13.8358 16.5 14.25V16.5H12V14.25ZM24 42C24 42.8285 23.3284 43.5 22.5 43.5C21.6716 43.5 21 42.8285 21 42V37.5H24V42ZM25.5 35.25C25.5 35.6642 25.1642 36 24.75 36H20.25C19.8358 36 19.5 35.6642 19.5 35.25V33H25.5V35.25ZM29.25 31.5H15.75C9.83089 31.4924 4.9271 26.9055 4.52477 21H40.4753C40.0729 26.9055 35.1691 31.4924 29.25 31.5ZM42 18.75C42 19.1642 41.6642 19.5 41.25 19.5H3.75002C3.33581 19.5 3.00002 19.1642 3.00002 18.75C3.00002 18.3358 3.33581 18 3.75002 18H41.25C41.6642 18 42 18.3358 42 18.75ZM28.5 14.25C28.5 13.8358 28.8358 13.5 29.25 13.5H32.25C32.6642 13.5 33 13.8358 33 14.25V16.5H28.5V14.25ZM19.3418 3.05778C18.4598 2.88034 17.5448 3.10803 16.8489 3.6781C16.153 4.24816 15.7497 5.10044 15.75 6.00003V6.75003H14.25V6.18303C14.2036 3.87508 15.8729 1.88929 18.1545 1.53828C19.4402 1.36887 20.7366 1.7615 21.7122 2.61579C22.6878 3.47008 23.2482 4.70324 23.25 6.00003V16.5H21.75V6.08853C21.7736 4.63296 20.765 3.36371 19.3418 3.05778Z" fill="black"/>
</g>
<defs>
<clipPath id="clip0_1_143">
<rect width="45" height="45" fill="white"/>
</clipPath>
</defs>
</svg>
