<svg width="30" height="30" viewBox="0 0 30 30" fill="none" xmlns="http://www.w3.org/2000/svg">
<circle cx="15" cy="15" r="14.5" fill="white" stroke="#E8E8E8"/>
<path d="M20.4563 17.0093C19.8781 16.4384 19.1562 16.4384 18.5816 17.0093C18.1433 17.4439 17.705 17.8785 17.2741 18.3205C17.1562 18.442 17.0568 18.4678 16.9131 18.3868C16.6295 18.2321 16.3275 18.1069 16.055 17.9374C14.7843 17.1382 13.7198 16.1106 12.777 14.9541C12.3092 14.3796 11.893 13.7645 11.602 13.0721C11.5431 12.9321 11.5541 12.84 11.6683 12.7258C12.1066 12.3023 12.5339 11.8677 12.9648 11.4331C13.5651 10.829 13.5651 10.1219 12.9611 9.51418C12.6186 9.16797 12.276 8.82912 11.9335 8.48291C11.5799 8.12933 11.23 7.77207 10.8728 7.42218C10.2945 6.85866 9.57261 6.85866 8.99804 7.42586C8.55607 7.86047 8.1325 8.30612 7.68316 8.73336C7.26696 9.12745 7.05702 9.60994 7.01283 10.1735C6.94285 11.0905 7.16752 11.9561 7.48427 12.7995C8.1325 14.5453 9.11959 16.0959 10.3166 17.5176C11.9335 19.4401 13.8635 20.9613 16.1213 22.0588C17.1378 22.5524 18.1912 22.9317 19.3366 22.9943C20.1248 23.0385 20.8099 22.8396 21.3587 22.2246C21.7344 21.8047 22.1579 21.4217 22.5557 21.0202C23.145 20.4235 23.1487 19.7016 22.5631 19.1123C21.8633 18.4089 21.1598 17.7091 20.4563 17.0093Z" fill="#8C5B2C"/>
</svg>
