<svg width="45" height="45" viewBox="0 0 45 45" fill="none" xmlns="http://www.w3.org/2000/svg">
<g opacity="0.2">
<path fill-rule="evenodd" clip-rule="evenodd" d="M2.87317 4.46952C2.87317 4.0842 3.18553 3.77185 3.57084 3.77185H8.00573C8.39106 3.77185 8.70341 4.0842 8.70341 4.46952V5.59916H36.3289V4.46952C36.3289 4.0842 36.6415 3.77185 37.0266 3.77185H41.4617C41.8468 3.77185 42.1594 4.0842 42.1594 4.46952V22.7753C42.1594 23.1606 41.8468 23.473 41.4617 23.473H37.0266C36.6415 23.473 36.3289 23.1606 36.3289 22.7753V21.6457H8.70341V22.7753C8.70341 23.1606 8.39106 23.473 8.00573 23.473H3.57084C3.18553 23.473 2.87317 23.1606 2.87317 22.7753V4.46952ZM36.3289 20.2503V6.99451H8.70341V20.2503H22.1226V18.5591L20.0073 16.6789H18.7628C18.3775 16.6789 18.0651 16.3665 18.0651 15.9812C18.0651 15.5959 18.3775 15.2835 18.7628 15.2835H19.893L21.4697 12.8466L19.7582 10.9795C19.4979 10.6955 19.517 10.2542 19.8011 9.99378C20.0851 9.73341 20.5265 9.75263 20.7868 10.0367L22.5427 11.9522L26.0632 10.6112C26.4233 10.4741 26.8264 10.6548 26.9635 11.0149C27.1007 11.3749 26.92 11.778 26.5599 11.9152L22.8101 13.3435L21.1835 15.8575L23.2838 17.7244C23.4327 17.8568 23.5179 18.0465 23.5179 18.2458V20.2503H36.3289ZM4.26853 5.1672V22.0776H7.30806V5.1672H4.26853ZM37.7243 22.0776V5.1672H40.7641V22.0776H37.7243Z" fill="black"/>
<path fill-rule="evenodd" clip-rule="evenodd" d="M22.6315 23.4464C22.4 23.4464 22.1496 23.6066 22.0537 23.7531C21.9578 23.8996 21.7749 24.1789 21.6572 24.3664C21.4223 24.7408 21.1081 25.2596 20.793 25.8348C20.479 26.4079 20.1576 27.0485 19.913 27.6649C19.6755 28.2634 19.4805 28.9108 19.4805 29.4738C19.4805 31.2141 20.8912 32.6248 22.6315 32.6248C24.3718 32.6248 25.7826 31.2141 25.7826 29.4738C25.7826 28.9108 25.5876 28.2634 25.35 27.6649C25.1054 27.0485 24.7841 26.4079 24.4701 25.8348C24.1549 25.2596 23.8408 24.7408 23.6058 24.3664C23.4882 24.1789 23.3112 23.9087 23.2096 23.7535C23.108 23.5983 22.8631 23.4464 22.6315 23.4464V23.4464ZM22.6315 25.444C22.8186 25.7511 23.0327 26.1153 23.2463 26.5053C23.5457 27.0516 23.8377 27.6369 24.0531 28.1796C24.2756 28.7401 24.3872 29.1849 24.3872 29.4738C24.3872 30.4434 23.6012 31.2295 22.6315 31.2295C21.6619 31.2295 20.8758 30.4434 20.8758 29.4738C20.8758 29.1849 20.9875 28.7401 21.2099 28.1796C21.4253 27.6369 21.7174 27.0516 22.0167 26.5053C22.2304 26.1153 22.4445 25.7511 22.6315 25.444V25.444Z" fill="black"/>
<path fill-rule="evenodd" clip-rule="evenodd" d="M16.9695 31.6788C16.6512 31.6788 16.3917 31.9855 16.3917 31.9855C16.3342 32.0733 16.16 32.3394 16.0625 32.4948C15.8679 32.8048 15.6075 33.2347 15.3462 33.7116C15.0861 34.1865 14.8185 34.7196 14.6143 35.2344C14.4171 35.7311 14.249 36.2826 14.249 36.7706C14.249 38.2734 15.467 39.4912 16.9695 39.4912C18.4719 39.4912 19.6899 38.2734 19.6899 36.7706C19.6899 36.2826 19.5219 35.7311 19.3247 35.2344C19.1204 34.7196 18.8529 34.1865 18.5927 33.7116C18.3314 33.2347 18.0711 32.8048 17.8765 32.4948C17.779 32.3394 17.605 32.0737 17.5476 31.9859C17.5476 31.9859 17.2878 31.6788 16.9695 31.6788V31.6788ZM16.9695 33.6853C16.8432 33.8967 16.7064 34.133 16.5699 34.3821C16.3244 34.8302 16.0862 35.308 15.9112 35.7489C15.7291 36.2076 15.6444 36.5564 15.6444 36.7706C15.6444 37.5025 16.2376 38.0959 16.9695 38.0959C17.7013 38.0959 18.2946 37.5025 18.2946 36.7706C18.2946 36.5564 18.2098 36.2076 18.0277 35.7489C17.8527 35.308 17.6145 34.8302 17.369 34.3821C17.2326 34.133 17.0958 33.8967 16.9695 33.6853Z" fill="black"/>
<path fill-rule="evenodd" clip-rule="evenodd" d="M27.7993 31.6788C28.1638 31.6788 28.3796 31.9893 28.3796 31.9893C28.4516 32.0992 28.6668 32.428 28.7892 32.623C29.0335 33.0123 29.3601 33.5517 29.6877 34.1496C30.0142 34.7455 30.348 35.4112 30.602 36.051C30.8489 36.673 31.0501 37.3427 31.0501 37.9228C31.0501 39.7183 29.5946 41.1737 27.7993 41.1737C26.0039 41.1737 24.5484 39.7183 24.5484 37.9228C24.5484 37.3427 24.7496 36.673 24.9966 36.051C25.2505 35.4112 25.5843 34.7455 25.9108 34.1496C26.2384 33.5517 26.5651 33.0123 26.8094 32.623C26.9317 32.428 27.147 32.0992 27.2189 31.9893C27.2189 31.9893 27.4347 31.6788 27.7993 31.6788V31.6788ZM27.1345 34.8201C27.3664 34.3969 27.5988 34.0028 27.7993 33.6747C27.9997 34.0028 28.2321 34.3969 28.464 34.8201C28.7758 35.3892 29.0803 35.9994 29.305 36.5655C29.5368 37.1498 29.6547 37.6166 29.6547 37.9228C29.6547 38.9477 28.824 39.7783 27.7993 39.7783C26.7745 39.7783 25.9438 38.9477 25.9438 37.9228C25.9438 37.6166 26.0617 37.1498 26.2935 36.5655C26.5182 35.9994 26.8227 35.3892 27.1345 34.8201Z" fill="black"/>
</g>
</svg>
