<svg width="200" height="58" viewBox="0 0 200 58" fill="none" xmlns="http://www.w3.org/2000/svg">
<path d="M62.7217 33.0648V57.0082H78.3384V52.0485H68.5866V33.0648H62.7217Z" fill="#B8824E"/>
<path d="M80.8829 33.0648V49.1411C80.8829 50.6461 81.1258 51.9573 81.6117 53.0747C82.1207 54.192 82.8147 55.1156 83.6939 55.8453C84.5962 56.5522 85.6373 57.088 86.8173 57.4529C87.9972 57.8177 89.2697 58.0002 90.6347 58.0002C91.9997 58.0002 93.2722 57.8177 94.4521 57.4529C95.6552 57.088 96.6963 56.5522 97.5754 55.8453C98.4777 55.1156 99.1718 54.192 99.6577 53.0747C100.167 51.9573 100.421 50.6461 100.421 49.1411V33.0648H94.5562V48.7307C94.5562 49.9392 94.2323 50.9198 93.5845 51.6723C92.9367 52.4248 91.9534 52.801 90.6347 52.801C89.3391 52.801 88.3674 52.4248 87.7196 51.6723C87.0718 50.9198 86.7478 49.9392 86.7478 48.7307V33.0648H80.8829Z" fill="#B8824E"/>
<path d="M111.636 44.7971L118.265 54.7849L124.928 44.7971L126.386 57.0082H132.563L128.641 31.8677L118.265 46.4731L107.923 31.8677L104.002 57.0082H110.179L111.636 44.7971Z" fill="#B8824E"/>
<path d="M140.671 45.1049H145.217C146.906 45.1049 148.386 44.8769 149.659 44.4208C150.954 43.942 151.972 43.2579 152.713 42.3686C153.476 41.4792 153.858 40.4075 153.858 39.1533C153.858 37.7851 153.476 36.6564 152.713 35.767C151.972 34.8549 150.954 34.1822 149.659 33.7489C148.386 33.2929 146.906 33.0648 145.217 33.0648H136.298V57.0082H145.807C147.727 57.0082 149.393 56.7802 150.804 56.3241C152.215 55.8453 153.303 55.1156 154.066 54.135C154.853 53.1545 155.246 51.8661 155.246 50.2699C155.246 49.0613 154.969 48.0352 154.413 47.1914C153.881 46.3249 153.164 45.618 152.262 45.0707C151.359 44.5007 150.353 44.0902 149.242 43.8394C148.132 43.5885 146.987 43.4631 145.807 43.4631H140.671V46.61H145.147C145.726 46.61 146.246 46.667 146.709 46.781C147.195 46.8722 147.623 47.0318 147.993 47.2598C148.363 47.4879 148.652 47.7843 148.861 48.1492C149.069 48.514 149.173 48.9473 149.173 49.449C149.173 50.2243 148.988 50.84 148.618 51.296C148.271 51.7293 147.796 52.0485 147.195 52.2538C146.593 52.4362 145.911 52.5274 145.147 52.5274H142.163V37.5457H144.592C145.61 37.5457 146.397 37.7509 146.952 38.1614C147.507 38.5718 147.785 39.1875 147.785 40.0084C147.785 40.5557 147.658 41.0232 147.403 41.4108C147.149 41.7757 146.778 42.0607 146.293 42.2659C145.83 42.4712 145.263 42.5738 144.592 42.5738H140.671V45.1049Z" fill="#B8824E"/>
<path d="M163.23 57.0082H175.481V52.2538H163.23V57.0082ZM163.23 37.8193H175.481V33.0648H163.23V37.8193ZM163.23 46.7468H174.787V42.0949H163.23V46.7468ZM159.343 33.0648V57.0082H164.965V33.0648H159.343Z" fill="#B8824E"/>
<path d="M186.327 46.1653L193.129 57.0082H200L192.4 46.1653H186.327ZM180.254 33.0648V57.0082H186.119V33.0648H180.254ZM183.932 37.9561H188.687C189.473 37.9561 190.144 38.0816 190.7 38.3324C191.278 38.5832 191.718 38.9481 192.018 39.4269C192.319 39.883 192.47 40.4417 192.47 41.103C192.47 41.7643 192.319 42.3344 192.018 42.8132C191.718 43.2693 191.278 43.6227 190.7 43.8736C190.144 44.1016 189.473 44.2156 188.687 44.2156H183.932V48.6965H189.103C191.186 48.6965 192.921 48.3658 194.309 47.7045C195.697 47.0432 196.75 46.1311 197.467 44.9681C198.184 43.7824 198.543 42.4256 198.543 40.8977C198.543 39.3471 198.184 37.9903 197.467 36.8274C196.75 35.6416 195.697 34.7181 194.309 34.0568C192.921 33.3955 191.186 33.0648 189.103 33.0648H183.932V37.9561Z" fill="#B8824E"/>
<path fill-rule="evenodd" clip-rule="evenodd" d="M15.0383 0H0V57.0081H15.0383V0ZM29.0838 11.3202V25.8979H35.2339C38.0597 25.8979 40.2759 25.2736 41.8827 24.0248C43.4895 22.7761 44.2929 20.9844 44.2929 18.6498C44.2929 16.2609 43.4895 14.442 41.8827 13.1933C40.2759 11.9445 38.0597 11.3202 35.2339 11.3202H29.0838ZM29.0838 37.2181V57.0081H57.8397V18.8127L57.8392 18.8123C57.815 22.5448 56.9564 25.8025 55.2633 28.5855C53.5457 31.3544 50.997 33.499 47.6172 35.0192C44.2929 36.4852 40.1651 37.2181 35.2339 37.2181H29.0838Z" fill="#B8824E"/>
</svg>
