<svg width="45" height="45" viewBox="0 0 45 45" fill="none" xmlns="http://www.w3.org/2000/svg">
<g opacity="0.2" clip-path="url(#clip0_1_121)">
<path d="M43.5001 40.638V15C43.5001 7.54416 37.4559 1.5 30.0001 1.5C22.5443 1.5 16.5001 7.54416 16.5001 15V16.638C15.6043 16.9547 15.004 17.7999 15.0001 18.75V26.25C15.004 27.2001 15.6043 28.0453 16.5001 28.362V30C16.5001 30.8284 15.8285 31.5 15.0001 31.5C14.1717 31.5 13.5001 30.8284 13.5001 30V4.362C14.5325 3.99836 15.1521 2.94312 14.9666 1.86437C14.7812 0.78562 13.8447 -0.00206996 12.7501 4.08623e-06H2.2501C1.15552 -0.00206996 0.21904 0.78562 0.0335601 1.86437C-0.15192 2.94312 0.46769 3.99836 1.5001 4.362V30C1.5001 37.4559 7.54426 43.5 15.0001 43.5C22.4559 43.5 28.5001 37.4559 28.5001 30V28.362C29.3959 28.0453 29.9962 27.2001 30.0001 26.25V18.75C29.9962 17.7999 29.3959 16.9547 28.5001 16.638V15C28.5001 14.1716 29.1717 13.5 30.0001 13.5C30.8285 13.5 31.5001 14.1716 31.5001 15V40.638C30.4677 41.0016 29.8481 42.0569 30.0336 43.1356C30.219 44.2144 31.1555 45.0021 32.2501 45H42.7501C43.8447 45.0021 44.7812 44.2144 44.9666 43.1356C45.1521 42.0569 44.5325 41.0016 43.5001 40.638ZM2.2501 1.5H12.7501C13.1643 1.5 13.5001 1.83579 13.5001 2.25C13.5001 2.66422 13.1643 3 12.7501 3H2.2501C1.83589 3 1.5001 2.66422 1.5001 2.25C1.5001 1.83579 1.83589 1.5 2.2501 1.5ZM15.0001 42C8.37594 41.9922 3.00795 36.6242 3.0001 30V4.5H12.0001V30C12.0001 31.6569 13.3432 33 15.0001 33C16.657 33 18.0001 31.6569 18.0001 30V28.5H27.0001V30C26.9923 36.6242 21.6243 41.9922 15.0001 42ZM28.5001 26.25C28.5001 26.6642 28.1643 27 27.7501 27H17.2501C16.8359 27 16.5001 26.6642 16.5001 26.25V18.75C16.5001 18.3358 16.8359 18 17.2501 18H27.7501C28.1643 18 28.5001 18.3358 28.5001 18.75V26.25ZM30.0001 12C28.3432 12 27.0001 13.3432 27.0001 15V16.5H18.0001V15C18.0001 8.37259 23.3727 3 30.0001 3C36.6275 3 42.0001 8.37259 42.0001 15V40.5H33.0001V15C33.0001 13.3432 31.657 12 30.0001 12ZM42.7501 43.5H32.2501C31.8359 43.5 31.5001 43.1642 31.5001 42.75C31.5001 42.3358 31.8359 42 32.2501 42H42.7501C43.1643 42 43.5001 42.3358 43.5001 42.75C43.5001 43.1642 43.1643 43.5 42.7501 43.5Z" fill="black"/>
</g>
<defs>
<clipPath id="clip0_1_121">
<rect width="45" height="45" fill="white"/>
</clipPath>
</defs>
</svg>
