<svg width="17" height="17" viewBox="0 0 17 17" fill="none" xmlns="http://www.w3.org/2000/svg">
<g opacity="0.8">
<path fill-rule="evenodd" clip-rule="evenodd" d="M8.5 0C3.80748 0 0 3.80748 0 8.5C0 13.1925 3.80748 17 8.5 17C13.1833 17 17 13.1925 17 8.5C17 3.80748 13.1833 0 8.5 0ZM14.1144 3.91811C15.1285 5.15347 15.737 6.72993 15.7554 8.43545C15.5157 8.38939 13.1187 7.90075 10.7034 8.205C10.6481 8.08515 10.6019 7.95605 10.5466 7.82701C10.3991 7.47671 10.2332 7.11716 10.0672 6.77604C12.7408 5.6882 13.9577 4.12093 14.1144 3.91811ZM8.5 1.2538C10.3438 1.2538 12.0309 1.94523 13.3124 3.07918C13.1833 3.26356 12.0862 4.72939 9.50486 5.69739C8.3156 3.51247 6.99731 1.72397 6.79448 1.4474C7.33837 1.31833 7.90999 1.2538 8.5 1.2538ZM5.41163 1.93601C5.60522 2.19414 6.89589 3.99187 8.10358 6.13068C4.71096 7.03417 1.71475 7.01574 1.39208 7.01574C1.86225 4.76627 3.3834 2.89479 5.41163 1.93601ZM1.23536 8.50924C1.23536 8.43545 1.23536 8.36172 1.23536 8.28798C1.54881 8.29717 5.0705 8.34328 8.69359 7.25544C8.90566 7.66105 9.09925 8.0759 9.28365 8.49076C9.19142 8.51843 9.09001 8.54611 8.99783 8.57374C5.25488 9.78143 3.26356 13.0819 3.09761 13.3584C1.94523 12.077 1.23536 10.3715 1.23536 8.50924ZM8.5 15.7646C6.8221 15.7646 5.27332 15.1931 4.04718 14.2343C4.17625 13.9669 5.65128 11.1275 9.74456 9.6985C9.76299 9.68926 9.77224 9.68926 9.79067 9.68007C10.814 12.3259 11.2289 14.5477 11.3395 15.1838C10.4637 15.5618 9.50486 15.7646 8.5 15.7646ZM12.5472 14.5201C12.4734 14.0775 12.0862 11.9572 11.1366 9.34814C13.4138 8.98859 15.4051 9.57865 15.654 9.66163C15.3406 11.6806 14.179 13.423 12.5472 14.5201Z" fill="#B8824E" fill-opacity="0.7"/>
</g>
</svg>
