<svg width="50" height="50" viewBox="0 0 50 50" fill="none" xmlns="http://www.w3.org/2000/svg">
<g opacity="0.2">
<path d="M39.8438 18.75H34.375V17.1875C34.375 16.9803 34.2927 16.7816 34.1462 16.6351C33.9997 16.4886 33.801 16.4062 33.5938 16.4062H29.6875C29.4803 16.4062 29.2816 16.4886 29.1351 16.6351C28.9886 16.7816 28.9062 16.9803 28.9062 17.1875V18.75H27.3438V8.59375C27.3438 8.38655 27.4261 8.18784 27.5726 8.04132C27.7191 7.89481 27.9178 7.8125 28.125 7.8125C28.3322 7.8125 28.5309 7.89481 28.6774 8.04132C28.8239 8.18784 28.9062 8.38655 28.9062 8.59375V13.2812C28.9062 13.4885 28.9886 13.6872 29.1351 13.8337C29.2816 13.9802 29.4803 14.0625 29.6875 14.0625H32.8125C33.0197 14.0625 33.2184 13.9802 33.3649 13.8337C33.5114 13.6872 33.5938 13.4885 33.5938 13.2812V8.59375C33.5938 7.14335 33.0176 5.75235 31.992 4.72676C30.9664 3.70117 29.5754 3.125 28.125 3.125C26.6746 3.125 25.2836 3.70117 24.258 4.72676C23.2324 5.75235 22.6562 7.14335 22.6562 8.59375V18.75H21.0938V17.1875C21.0938 16.9803 21.0114 16.7816 20.8649 16.6351C20.7184 16.4886 20.5197 16.4062 20.3125 16.4062H16.4062C16.199 16.4062 16.0003 16.4886 15.8538 16.6351C15.7073 16.7816 15.625 16.9803 15.625 17.1875V18.75H10.1562C9.94905 18.75 9.75034 18.8323 9.60382 18.9788C9.45731 19.1253 9.375 19.324 9.375 19.5312V22.6562C9.375 22.8635 9.45731 23.0622 9.60382 23.2087C9.75034 23.3552 9.94905 23.4375 10.1562 23.4375H11.7188V25.7812C11.7188 27.2317 12.2949 28.6227 13.3205 29.6482C14.3461 30.6738 15.7371 31.25 17.1875 31.25H22.6562V32.8125C22.2418 32.8125 21.8444 32.9771 21.5514 33.2701C21.2584 33.5632 21.0938 33.9606 21.0938 34.375V40.625C21.0938 41.0394 21.2584 41.4368 21.5514 41.7299C21.8444 42.0229 22.2418 42.1875 22.6562 42.1875V46.0938C22.6562 46.301 22.7386 46.4997 22.8851 46.6462C23.0316 46.7927 23.2303 46.875 23.4375 46.875H26.5625C26.7697 46.875 26.9684 46.7927 27.1149 46.6462C27.2614 46.4997 27.3438 46.301 27.3438 46.0938V42.1875C27.7582 42.1875 28.1556 42.0229 28.4486 41.7299C28.7416 41.4368 28.9062 41.0394 28.9062 40.625V34.375C28.9062 33.9606 28.7416 33.5632 28.4486 33.2701C28.1556 32.9771 27.7582 32.8125 27.3438 32.8125V31.25H32.8125C34.2629 31.25 35.6539 30.6738 36.6795 29.6482C37.7051 28.6227 38.2812 27.2317 38.2812 25.7812V23.4375H39.8438C40.051 23.4375 40.2497 23.3552 40.3962 23.2087C40.5427 23.0622 40.625 22.8635 40.625 22.6562V19.5312C40.625 19.324 40.5427 19.1253 40.3962 18.9788C40.2497 18.8323 40.051 18.75 39.8438 18.75ZM30.4688 17.9688H32.8125V18.75H30.4688V17.9688ZM30.4688 12.5V10.9375H32.0312V12.5H30.4688ZM24.2188 8.59375C24.2188 7.55775 24.6303 6.56418 25.3629 5.83161C26.0954 5.09905 27.089 4.6875 28.125 4.6875C29.161 4.6875 30.1546 5.09905 30.8871 5.83161C31.6197 6.56418 32.0312 7.55775 32.0312 8.59375V9.375H30.4688V8.59375C30.4688 7.97215 30.2218 7.37601 29.7823 6.93647C29.3427 6.49693 28.7466 6.25 28.125 6.25C27.5034 6.25 26.9073 6.49693 26.4677 6.93647C26.0282 7.37601 25.7812 7.97215 25.7812 8.59375V18.75H24.2188V8.59375ZM17.1875 17.9688H19.5312V18.75H17.1875V17.9688ZM25.7812 45.3125H24.2188V42.1875H25.7812V45.3125ZM27.3438 40.625H22.6562V34.375H27.3438V40.625ZM25.7812 32.8125H24.2188V31.25H25.7812V32.8125ZM36.7188 25.7812C36.7188 26.8173 36.3072 27.8108 35.5746 28.5434C34.8421 29.2759 33.8485 29.6875 32.8125 29.6875H17.1875C16.1515 29.6875 15.1579 29.2759 14.4254 28.5434C13.6928 27.8108 13.2812 26.8173 13.2812 25.7812V23.4375H36.7188V25.7812ZM39.0625 21.875H10.9375V20.3125H39.0625V21.875Z" fill="black"/>
</g>
</svg>
