<svg width="45" height="45" viewBox="0 0 45 45" fill="none" xmlns="http://www.w3.org/2000/svg">
<g opacity="0.2">
<path d="M39.9725 15.8091C38.4552 15.8091 37.1875 16.844 36.8046 18.2408H32.5643V18.0389C32.5643 17.561 32.1773 17.1735 31.6989 17.1735C31.2206 17.1735 30.8336 17.561 30.8336 18.0389V18.2408H28.4478C28.0977 17.9221 27.7114 17.6431 27.3036 17.3975V11.2124C27.6681 10.9178 27.9842 10.5833 28.2441 10.2163C31.1578 11.3791 35.8467 12.1996 37.4532 12.1996C40.019 12.1996 42.1064 10.1122 42.1064 7.5465C42.1064 4.98077 40.019 2.89337 37.4532 2.89337C35.8459 2.89337 31.1572 3.71401 28.2437 4.8765C27.233 3.44828 25.4795 2.55786 23.5572 2.55786C21.6322 2.55786 19.8768 3.44981 18.8688 4.87571C15.955 3.71359 11.2674 2.89337 9.66036 2.89337C7.09463 2.89337 5.00723 4.98077 5.00723 7.5465C5.00723 10.1122 7.09463 12.1996 9.66036 12.1996C11.2671 12.1996 15.9533 11.3797 18.8672 10.2176C19.1868 10.6713 19.5944 11.0709 20.0686 11.4124V17.2686C19.5719 17.5407 19.0956 17.8514 18.6675 18.2408H16.1195V18.0389C16.1195 17.561 15.7324 17.1735 15.2541 17.1735C14.7758 17.1735 14.3887 17.561 14.3887 18.0389V18.2408H10.437C6.27657 18.2408 2.89109 21.6259 2.89109 25.7868V33.7831H2.59615C2.11782 33.7831 1.73077 34.1706 1.73077 34.6485C1.73077 35.1264 2.11782 35.5139 2.59615 35.5139C2.73908 35.5139 6.776 35.5139 6.68491 35.5139C5.93737 36.6715 5.01483 38.2981 5.01483 39.3008C5.01483 41.0328 6.42362 42.442 8.15608 42.442C9.88854 42.442 11.2973 41.0328 11.2973 39.3008C11.2973 38.2981 10.3748 36.6715 9.62724 35.5139H13.7169C14.1952 35.5139 14.5822 35.1264 14.5822 34.6485C14.5822 34.1706 14.1952 33.7831 13.7169 33.7831H13.5267V28.8849H14.3887V29.0869C14.3887 29.5648 14.7758 29.9523 15.2541 29.9523C15.7324 29.9523 16.1195 29.5648 16.1195 29.0869V28.8849H18.4722C19.8185 30.2092 21.6464 30.9617 23.5471 30.9617C25.4579 30.9617 27.2926 30.2092 28.6397 28.8849H30.8336V29.0869C30.8336 29.5648 31.2206 29.9523 31.6989 29.9523C32.1773 29.9523 32.5643 29.5648 32.5643 29.0869V28.8849H36.9151C37.4017 30.0994 38.5857 30.9617 39.9725 30.9617C41.7903 30.9617 43.2692 29.4828 43.2692 27.6646V19.1058C43.2692 17.288 41.7903 15.8091 39.9725 15.8091V15.8091ZM8.15608 40.7113C7.37858 40.7113 6.7456 40.0787 6.7456 39.3008C6.7456 38.8525 7.39295 37.6186 8.15608 36.4279C8.91921 37.6178 9.56655 38.8516 9.56655 39.3008C9.56655 40.0787 8.93357 40.7113 8.15608 40.7113ZM25.5728 12.1967V16.6438C24.3708 16.2922 23.0507 16.2664 21.7994 16.5739V12.2837C22.9107 12.616 24.363 12.6237 25.5728 12.1967V12.1967ZM37.4532 4.62414C39.0649 4.62414 40.3756 5.93531 40.3756 7.5465C40.3756 9.15769 39.0649 10.4689 37.4532 10.4689C36.1678 10.4689 31.7125 9.71799 28.9811 8.6502C29.1601 7.93194 29.1542 7.17214 28.9898 6.48891C28.9861 6.47359 28.9849 6.45764 28.9811 6.44237C31.7116 5.37501 36.1678 4.62414 37.4532 4.62414V4.62414ZM23.5572 4.28863C25.6205 4.28863 27.3855 5.72442 27.3855 7.5465C27.3855 10.2146 23.8211 11.6841 21.3769 10.2162C20.2717 9.56394 19.7281 8.53939 19.7281 7.5465C19.7281 5.74044 21.4634 4.28863 23.5572 4.28863V4.28863ZM9.66036 10.4689C8.04875 10.4689 6.738 9.15769 6.738 7.5465C6.738 5.93531 8.04875 4.62414 9.66036 4.62414C10.9466 4.62414 15.4028 5.37459 18.1325 6.44237C18.1286 6.45822 18.1273 6.4748 18.1235 6.4907C17.9648 7.1501 17.9503 7.88339 18.1243 8.6061C18.1278 8.62057 18.1289 8.63573 18.1325 8.6502C15.402 9.71799 10.9458 10.4689 9.66036 10.4689ZM12.6613 27.1541C12.183 27.1541 11.7959 27.5416 11.7959 28.0195V33.7831H4.62186V25.7868C4.62186 22.5804 7.23069 19.9716 10.437 19.9716H14.3887V27.1541H12.6613ZM28.272 27.1541C28.0287 27.1541 27.7963 27.2568 27.6323 27.4368C26.5928 28.5769 25.1038 29.231 23.5471 29.231C22.0014 29.231 20.5191 28.5769 19.4796 27.4368C19.3157 27.2568 19.0833 27.1541 18.8399 27.1541H16.1195V19.9716H19.0131C19.243 19.9716 19.4627 19.8803 19.625 19.7181C20.1329 19.2106 20.7118 18.8151 21.2822 18.5666C22.5608 18.1301 24.0077 18.0596 25.2221 18.3397C25.2356 18.3427 25.2491 18.3456 25.2626 18.3478C26.1061 18.6241 26.8734 19.0961 27.4836 19.7143C27.6467 19.8791 27.8681 19.9716 28.0996 19.9716H30.8336V27.1541H28.272ZM32.5643 19.9716H36.6749V27.1541H32.5643V19.9716ZM41.5385 27.6646C41.5385 28.5283 40.8362 29.231 39.9725 29.231C39.1088 29.231 38.4057 28.5283 38.4057 27.6646V19.1062V19.1058C38.4057 18.2425 39.1088 17.5398 39.9725 17.5398C40.8362 17.5398 41.5385 18.2425 41.5385 19.1058V27.6646Z" fill="black"/>
<path d="M23.6857 8.45497C24.164 8.45497 24.595 8.02439 24.595 7.54648C24.595 7.06858 24.164 6.63757 23.6857 6.63757C23.2073 6.63757 22.7772 7.06858 22.7772 7.54648C22.7772 8.02439 23.2073 8.45497 23.6857 8.45497Z" fill="black"/>
</g>
</svg>
